<?xml version="1.0" encoding="utf-8"?>
<!-- Generator: Adobe Illustrator 19.0.0, SVG Export Plug-In . SVG Version: 6.00 Build 0)  -->
<svg version="1.1" id="Layer_1" xmlns="http://www.w3.org/2000/svg" xmlns:xlink="http://www.w3.org/1999/xlink" x="0px" y="0px"
	 width="20px" height="20px" viewBox="0 0 20 20" style="enable-background:new 0 0 20 20;" xml:space="preserve">
<style type="text/css">
	.st0{fill:#584A69;}
</style>
<g id="Page-1">
	<rect id="Rectangle" x="1.7" class="st0" width="2.2" height="14"/>
	<path id="Rectangle_1_" class="st0" d="M15.3,2.2h2.2V6c0,1.2-1,2.2-2.2,2.2V2.2z"/>
	<rect id="Rectangle_2_" x="1.7" class="st0" width="7.4" height="2.2"/>
	<g id="Group-2" transform="translate(0.000000, 85.000000)">
		<polygon id="Rectangle_3_" class="st0" points="1.7,-76.9 1.7,-79 9.2,-79 9.2,-76.9 		"/>
	</g>
	<g id="Group" transform="translate(118.000000, 85.000000)">
		<rect id="Rectangle_4_" x="-108" y="-79" class="st0" width="2.2" height="14"/>
		<path id="Rectangle_5_" class="st0" d="M-108-76.9V-79h7.4l0,0c0,1.2-1,2.2-2.2,2.2H-108z"/>
		<rect id="Rectangle_6_" x="-108" y="-73.2" class="st0" width="7.4" height="2.2"/>
	</g>
	<rect id="Rectangle_7_" x="1.7" y="11.9" class="st0" width="7.4" height="2.2"/>
	<polygon id="Triangle" class="st0" points="16.4,0 18.3,2.2 14.5,2.2 	"/>
	<rect id="Rectangle_15_" x="15.3" y="1.8" class="st0" width="2.1" height="2.4"/>
</g>
</svg>
