<?xml version="1.0" encoding="utf-8"?>
<!-- Generator: Adobe Illustrator 19.0.0, SVG Export Plug-In . SVG Version: 6.00 Build 0)  -->
<svg version="1.1" id="Layer_1" xmlns="http://www.w3.org/2000/svg" xmlns:xlink="http://www.w3.org/1999/xlink" x="0px" y="0px"
	 width="20px" height="20px" viewBox="0 0 20 20" style="enable-background:new 0 0 20 20;" xml:space="preserve">
<style type="text/css">
	.st0{fill:#584a69;}
</style>
<title>profile_image [#1348]</title>
<desc>Created with Sketch.</desc>
<g id="Page-1">
	<g id="Dribbble-Dark-Preview" transform="translate(-300.000000, -2119.000000)">
		<g id="icons" transform="translate(56.000000, 160.000000)">
			<path id="profile_x5F_image-_x5B__x23_1348_x5D_" class="st0" d="M262,1977h-0.5c-0.6-2.5-2.4-4.5-4.7-5.5c0.6-0.7,1-1.6,1-2.6
				c0-2.2-1.8-4-4-4s-4,1.8-4,4c0,1,0.4,1.9,1,2.6c-2.3,1-4.1,3-4.7,5.5v-16h16L262,1977L262,1977z M251.8,1968.9c0-1.1,0.9-2,2-2
				s2,0.9,2,2s-0.9,2-2,2l0,0l0,0C252.6,1970.9,251.8,1970,251.8,1968.9L251.8,1968.9z M248.1,1977c0.8-2.4,3-4.1,5.6-4.1l0,0l0,0
				c2.6,0,4.9,1.7,5.6,4.1H248.1z M244,1979h20v-20h-20V1979z"/>
		</g>
	</g>
</g>
</svg>
